<svg width="144.005" height="217.211" viewBox="0 0 144.005 217.211" xmlns="http://www.w3.org/2000/svg"><g id="svgGroup" stroke-linecap="round" fill-rule="evenodd" font-size="9pt" stroke="#000" stroke-width="0.25mm" fill="#000" style="stroke:#000;stroke-width:0.25mm;fill:#000"><path d="M 18.302 188.556 A 76.162 76.162 0 0 0 19.758 190.75 Q 37.974 217.206 71.702 217.206 Q 90.734 217.206 104.965 208.772 A 62.976 62.976 0 0 0 125.252 189.006 Q 138.143 169.618 142.171 139.029 A 231.317 231.317 0 0 0 144.002 108.906 A 245.672 245.672 0 0 0 142.724 83.1 Q 139.165 49.471 125.702 28.506 A 76.147 76.147 0 0 0 124.57 26.793 Q 113.386 10.367 96.265 4.013 A 68.426 68.426 0 0 0 72.302 0.006 Q 53.271 0.006 39.04 8.439 A 62.976 62.976 0 0 0 18.752 28.206 Q 5.862 47.593 1.833 78.183 A 231.317 231.317 0 0 0 0.002 108.306 Q 0.002 159.906 18.302 188.556 Z M 72.002 192.606 A 38.285 38.285 0 0 0 85.265 190.37 A 34.479 34.479 0 0 0 95.252 184.656 A 35.242 35.242 0 0 0 102.432 176.488 Q 105.077 172.429 107.221 167.215 A 84.35 84.35 0 0 0 110.252 158.406 A 112.699 112.699 0 0 0 113.235 144.38 Q 115.502 129.514 115.502 109.206 Q 115.502 70.364 105.336 48.951 A 64.365 64.365 0 0 0 103.952 46.206 A 51.786 51.786 0 0 0 96.536 35.523 A 32.045 32.045 0 0 0 72.002 24.606 A 38.285 38.285 0 0 0 58.739 26.841 A 34.479 34.479 0 0 0 48.752 32.556 Q 39.002 40.506 33.752 58.656 Q 28.613 76.423 28.505 106.696 A 365.965 365.965 0 0 0 28.502 108.006 Q 28.502 146.847 38.669 168.26 A 64.365 64.365 0 0 0 40.052 171.006 A 51.786 51.786 0 0 0 47.469 181.688 A 32.045 32.045 0 0 0 72.002 192.606 Z" vector-effect="non-scaling-stroke"/></g></svg>