<svg width="64.727" height="78.223" viewBox="0 0 64.727 78.223" xmlns="http://www.w3.org/2000/svg"><g id="svgGroup" stroke-linecap="round" fill-rule="evenodd" font-size="9pt" stroke="#000" stroke-width="0.25mm" fill="#000" style="stroke:#000;stroke-width:0.25mm;fill:#000"><path d="M 8.398 49.609 L 8.984 45.801 A 13.078 13.078 0 0 0 9.049 44.499 A 13.035 13.035 0 0 0 9.033 43.848 Q 8.994 43.066 9.111 42.223 A 10.306 10.306 0 0 1 9.18 41.797 A 17.868 17.868 0 0 1 9.473 39.893 A 9.219 9.219 0 0 0 9.668 37.988 A 4.966 4.966 0 0 0 9.706 37.453 Q 9.714 36.968 9.619 36.523 A 6.628 6.628 0 0 1 9.487 35.537 A 7.866 7.866 0 0 1 9.473 35.059 A 15.018 15.018 0 0 1 9.622 32.912 A 13.665 13.665 0 0 1 9.668 32.617 A 14.647 14.647 0 0 0 9.86 30.492 A 16.27 16.27 0 0 0 9.863 30.176 Q 9.863 28.906 9.766 27.637 A 11.031 11.031 0 0 1 9.733 26.79 A 11.117 11.117 0 0 1 9.863 25.098 Q 9.955 25.006 10.09 24.309 A 14.99 14.99 0 0 0 10.107 24.219 Q 10.223 23.601 10.247 23.35 A 1.172 1.172 0 0 0 10.254 23.242 A 8.738 8.738 0 0 0 10.174 22.043 A 7.998 7.998 0 0 0 10.156 21.924 A 8.074 8.074 0 0 1 10.083 21.252 A 10.838 10.838 0 0 1 10.059 20.508 Q 10.254 19.434 10.156 19.238 A 0.941 0.941 0 0 1 10.077 19.019 A 0.798 0.798 0 0 1 10.059 18.848 A 9.808 9.808 0 0 1 10.01 17.871 A 9.808 9.808 0 0 1 10.059 16.895 A 9.808 9.808 0 0 0 10.107 15.918 A 9.808 9.808 0 0 0 10.059 14.941 A 13.889 13.889 0 0 1 10.012 14.646 Q 9.883 13.75 10.01 13.623 A 1.303 1.303 0 0 0 10.253 13.283 A 1.355 1.355 0 0 0 10.254 13.281 A 27.48 27.48 0 0 1 10.306 12.686 Q 10.368 12.056 10.446 11.631 A 5.7 5.7 0 0 1 10.498 11.377 A 12.234 12.234 0 0 0 10.632 10.706 A 16.253 16.253 0 0 0 10.742 9.961 A 19.312 19.312 0 0 0 10.938 7.227 L 10.938 4.492 A 3.112 3.112 0 0 0 9.467 3.952 Q 9.06 3.908 8.607 3.949 A 5.135 5.135 0 0 0 8.545 3.955 Q 7.129 4.102 5.762 4.492 A 27.459 27.459 0 0 0 4.468 4.895 A 20.252 20.252 0 0 0 3.32 5.322 Q 2.339 5.724 2.091 5.758 A 0.297 0.297 0 0 1 2.051 5.762 Q 1.66 5.762 1.367 5.566 A 0.478 0.478 0 0 1 1.157 5.228 Q 1.133 5.079 1.172 4.883 Q 0.488 4.492 0.391 4.199 A 0.737 0.737 0 0 1 0.352 3.965 Q 0.352 3.789 0.439 3.613 A 2.06 2.06 0 0 1 0.828 3.078 A 2.143 2.143 0 0 1 0.83 3.076 Q 1.058 2.848 0.988 2.578 A 0.588 0.588 0 0 0 0.977 2.539 A 13.011 13.011 0 0 0 3.662 1.855 Q 4.98 1.367 6.445 1.27 Q 6.913 1.176 7.291 1.217 A 1.993 1.993 0 0 1 7.324 1.221 A 6.064 6.064 0 0 0 7.739 1.257 Q 7.959 1.27 8.203 1.27 A 29.752 29.752 0 0 0 9.585 1.1 A 25.718 25.718 0 0 0 10.059 1.025 A 53.922 53.922 0 0 0 10.962 0.867 A 63.712 63.712 0 0 0 11.914 0.684 A 5.109 5.109 0 0 0 12.231 0.674 Q 12.544 0.655 12.745 0.594 A 0.931 0.931 0 0 0 12.891 0.537 A 1.411 1.411 0 0 1 13.22 0.419 A 1.196 1.196 0 0 1 13.477 0.391 Q 14.648 0.488 14.795 0.439 A 0.907 0.907 0 0 1 14.954 0.403 Q 15.028 0.392 15.112 0.391 A 1.526 1.526 0 0 1 15.137 0.391 A 2.847 2.847 0 0 1 15.605 0.352 A 2.889 2.889 0 0 1 16.309 0.439 A 2.889 2.889 0 0 0 17.012 0.527 A 2.847 2.847 0 0 0 17.48 0.488 A 1.865 1.865 0 0 0 17.841 0.451 Q 18.016 0.416 18.207 0.35 A 3.541 3.541 0 0 0 18.359 0.293 Q 18.785 0.123 19.063 0.175 A 0.599 0.599 0 0 1 19.141 0.195 A 2.559 2.559 0 0 1 19.558 0.111 Q 20.007 0.061 20.41 0.195 A 3.839 3.839 0 0 0 21.344 0.378 A 4.544 4.544 0 0 0 21.68 0.391 A 5.542 5.542 0 0 0 22.73 0.294 A 4.846 4.846 0 0 0 23.145 0.195 A 5.145 5.145 0 0 1 24.272 0.009 A 6.005 6.005 0 0 1 24.609 0 A 5.481 5.481 0 0 1 25.809 0.137 A 6.469 6.469 0 0 1 26.221 0.244 A 5.999 5.999 0 0 0 27.314 0.462 A 5.178 5.178 0 0 0 27.832 0.488 Q 28.32 0.488 28.613 0.391 Q 28.906 0.293 29.297 0.391 A 3.261 3.261 0 0 1 30.42 0.586 Q 30.957 0.781 31.543 0.879 A 1.293 1.293 0 0 0 31.773 0.916 Q 32.036 0.933 32.275 0.83 A 1.839 1.839 0 0 1 33.008 0.684 A 1.009 1.009 0 0 1 33.154 0.695 Q 33.304 0.717 33.496 0.781 A 1.845 1.845 0 0 0 34.073 0.879 A 1.776 1.776 0 0 0 34.082 0.879 A 7.007 7.007 0 0 0 35.18 0.789 A 8.052 8.052 0 0 0 35.498 0.732 A 1.294 1.294 0 0 1 35.748 0.707 Q 36.313 0.705 36.784 1.232 A 2.428 2.428 0 0 1 36.816 1.27 A 18.329 18.329 0 0 1 38.796 1.609 A 15.322 15.322 0 0 1 39.893 1.904 A 37.999 37.999 0 0 1 42.408 2.785 A 41.739 41.739 0 0 1 42.773 2.93 A 2.95 2.95 0 0 1 43.209 3.113 Q 43.449 3.238 43.629 3.399 A 1.731 1.731 0 0 1 43.701 3.467 A 0.715 0.715 0 0 0 44.042 3.654 Q 44.353 3.731 44.824 3.613 A 14.897 14.897 0 0 0 45.475 4.313 Q 45.815 4.655 46.143 4.932 A 2.93 2.93 0 0 0 46.887 5.383 Q 47.314 5.566 47.852 5.664 A 4.126 4.126 0 0 1 48.624 6.72 A 3.931 3.931 0 0 1 48.633 6.738 Q 49.414 7.207 49.758 7.363 A 1.537 1.537 0 0 0 49.902 7.422 A 5.191 5.191 0 0 1 50.108 7.495 Q 50.208 7.533 50.294 7.571 A 2.506 2.506 0 0 1 50.391 7.617 A 3.252 3.252 0 0 0 50.731 8.005 A 2.593 2.593 0 0 0 51.025 8.252 Q 51.287 8.439 51.635 8.654 A 17.614 17.614 0 0 0 51.855 8.789 Q 52.344 9.18 52.93 9.57 A 3.525 3.525 0 0 1 53.206 9.998 A 2.781 2.781 0 0 1 53.369 10.352 A 3.779 3.779 0 0 0 53.539 10.739 A 2.927 2.927 0 0 0 53.711 11.035 Q 53.906 11.426 54.297 11.475 A 0.312 0.312 0 0 1 54.565 11.68 Q 54.634 11.851 54.596 12.163 A 2.306 2.306 0 0 1 54.59 12.207 Q 55.664 13.379 56.006 14.014 A 7.329 7.329 0 0 0 56.806 15.198 A 8.063 8.063 0 0 0 56.836 15.234 A 18.299 18.299 0 0 1 56.973 15.42 Q 57.338 15.919 57.406 16.097 A 0.196 0.196 0 0 1 57.422 16.162 A 0.544 0.544 0 0 0 57.437 16.284 Q 57.46 16.385 57.52 16.504 A 2.053 2.053 0 0 1 57.711 16.676 Q 57.963 16.936 57.963 17.174 A 0.442 0.442 0 0 1 57.959 17.236 Q 57.91 17.578 58.398 17.48 A 1.346 1.346 0 0 0 58.355 17.606 Q 58.289 17.835 58.349 17.988 A 0.377 0.377 0 0 0 58.496 18.164 A 0.371 0.371 0 0 1 58.645 18.372 Q 58.718 18.609 58.594 19.043 A 12.595 12.595 0 0 1 59.411 20.143 A 13.891 13.891 0 0 1 59.521 20.313 Q 59.911 20.919 59.725 21.603 A 1.997 1.997 0 0 1 59.668 21.777 A 9.357 9.357 0 0 1 60.544 23.182 A 8.592 8.592 0 0 1 60.645 23.389 A 5.359 5.359 0 0 0 61.713 24.897 A 5.928 5.928 0 0 0 61.719 24.902 A 38.898 38.898 0 0 1 61.785 25.388 Q 61.81 25.578 61.83 25.75 A 19.853 19.853 0 0 1 61.865 26.074 Q 61.905 26.475 62.241 26.875 A 2.719 2.719 0 0 0 62.402 27.051 Q 62.5 28.125 62.842 29.102 A 47.591 47.591 0 0 0 63.574 31.055 Q 63.77 31.543 63.721 32.08 Q 63.672 32.617 63.672 33.105 A 3.783 3.783 0 0 0 63.822 33.651 A 3.111 3.111 0 0 0 63.965 33.984 A 3.257 3.257 0 0 1 64.179 34.539 A 3.993 3.993 0 0 1 64.258 34.863 A 1.716 1.716 0 0 1 64.294 35.052 Q 64.331 35.327 64.258 35.547 Q 64.16 35.839 64.257 36.132 A 0.958 0.958 0 0 0 64.258 36.133 L 64.453 36.719 L 64.648 37.305 A 7.67 7.67 0 0 1 64.727 38.391 A 7.352 7.352 0 0 1 64.551 39.99 Q 64.258 41.309 64.063 42.676 Q 63.965 43.652 63.916 44.629 Q 63.867 45.605 63.672 46.582 A 7.193 7.193 0 0 1 63.428 47.363 A 7.193 7.193 0 0 0 63.184 48.145 Q 62.793 49.805 62.744 51.367 Q 62.695 52.93 62.207 54.59 A 9.814 9.814 0 0 1 61.712 56.055 A 10.771 10.771 0 0 1 61.67 56.152 A 8.992 8.992 0 0 0 61.139 57.785 A 9.794 9.794 0 0 0 61.133 57.813 Q 61.133 58.008 60.596 58.789 A 13.459 13.459 0 0 1 60.406 59.058 Q 60.022 59.589 59.863 59.668 A 1.682 1.682 0 0 1 59.852 59.872 Q 59.822 60.114 59.717 60.254 Q 59.57 60.449 59.668 60.938 A 0.137 0.137 0 0 0 59.616 60.952 Q 59.5 61.003 59.224 61.241 A 7.755 7.755 0 0 0 59.18 61.279 A 18.141 18.141 0 0 1 58.566 61.792 A 20.146 20.146 0 0 1 58.35 61.963 A 9.13 9.13 0 0 0 57.862 62.369 A 7.382 7.382 0 0 0 57.568 62.646 L 57.129 63.086 Q 56.914 63.658 56.595 63.995 A 1.63 1.63 0 0 1 56.348 64.209 A 11.971 11.971 0 0 0 56.122 64.371 Q 55.913 64.525 55.778 64.641 A 2.171 2.171 0 0 0 55.664 64.746 A 30.177 30.177 0 0 1 54.053 66.248 A 26.357 26.357 0 0 1 53.516 66.699 Q 52.441 67.578 51.367 68.555 Q 50.977 68.848 50.537 69.043 A 20.999 20.999 0 0 0 49.912 69.333 A 18.153 18.153 0 0 0 49.707 69.434 A 4.968 4.968 0 0 1 49.444 69.678 A 5.982 5.982 0 0 1 49.268 69.824 A 5.712 5.712 0 0 0 48.981 70.068 A 4.741 4.741 0 0 0 48.828 70.215 Q 48.179 70.377 48.069 70.472 A 0.052 0.052 0 0 0 48.047 70.508 A 0.118 0.118 0 0 1 48.024 70.575 Q 47.994 70.619 47.925 70.662 A 0.84 0.84 0 0 1 47.852 70.703 A 0.659 0.659 0 0 1 47.382 70.898 A 0.865 0.865 0 0 1 47.363 70.898 Q 47.07 70.898 46.777 71.094 A 42.361 42.361 0 0 0 46.167 71.405 Q 45.332 71.839 44.957 72.095 A 3.432 3.432 0 0 0 44.922 72.119 A 8.197 8.197 0 0 1 44.135 72.604 A 9.467 9.467 0 0 1 43.848 72.754 Q 43.687 72.834 43.46 72.882 A 2.538 2.538 0 0 1 43.359 72.9 A 1.364 1.364 0 0 0 42.998 73.016 A 1.791 1.791 0 0 0 42.773 73.145 A 35.993 35.993 0 0 1 42.135 73.435 Q 41.241 73.831 40.79 73.957 A 2.705 2.705 0 0 1 40.723 73.975 A 5.593 5.593 0 0 0 39.771 74.309 A 6.372 6.372 0 0 0 39.551 74.414 A 12.882 12.882 0 0 0 38.574 74.854 Q 38.086 75.098 37.5 75.293 L 36.426 75.098 Q 35.512 75.555 35.239 75.669 A 2.031 2.031 0 0 1 35.205 75.684 A 1.588 1.588 0 0 1 35.022 75.745 Q 34.928 75.77 34.842 75.778 A 0.841 0.841 0 0 1 34.766 75.781 A 6.339 6.339 0 0 1 33.88 75.934 A 8.487 8.487 0 0 1 33.008 75.977 A 2.702 2.702 0 0 0 32.117 76.119 A 2.363 2.363 0 0 0 31.348 76.563 A 12.026 12.026 0 0 0 30.15 76.502 A 11.793 11.793 0 0 0 27.49 76.807 Q 25.586 77.246 23.73 77.441 A 13.061 13.061 0 0 1 23.463 77.492 Q 22.733 77.622 22.607 77.539 A 0.582 0.582 0 0 0 22.334 77.445 A 0.732 0.732 0 0 0 22.266 77.441 A 8.579 8.579 0 0 0 20.52 77.796 A 7.967 7.967 0 0 0 20.41 77.832 A 8.486 8.486 0 0 1 18.676 78.21 A 9.368 9.368 0 0 1 18.555 78.223 A 7.077 7.077 0 0 1 17.54 78.146 A 8.785 8.785 0 0 1 16.895 78.027 A 8.081 8.081 0 0 0 15.137 77.832 A 1.53 1.53 0 0 0 14.792 77.87 A 1.31 1.31 0 0 0 14.6 77.93 A 1.375 1.375 0 0 1 14.206 78.021 A 1.655 1.655 0 0 1 14.063 78.027 Q 13.091 77.833 13.038 77.929 A 0.025 0.025 0 0 0 13.037 77.93 A 0.148 0.148 0 0 1 12.967 77.996 Q 12.904 78.027 12.793 78.027 Q 12.5 78.027 12.256 77.832 A 0.895 0.895 0 0 0 11.974 77.677 A 0.817 0.817 0 0 0 11.719 77.637 A 6.373 6.373 0 0 0 10.765 77.706 A 5.763 5.763 0 0 0 10.596 77.734 A 6.185 6.185 0 0 1 9.618 77.831 A 6.923 6.923 0 0 1 9.473 77.832 A 1.009 1.009 0 0 1 9.327 77.82 Q 9.177 77.798 8.984 77.734 A 1.845 1.845 0 0 0 8.408 77.637 A 1.776 1.776 0 0 0 8.398 77.637 A 1.53 1.53 0 0 0 8.053 77.674 A 1.31 1.31 0 0 0 7.861 77.734 A 1.375 1.375 0 0 1 7.468 77.826 A 1.655 1.655 0 0 1 7.324 77.832 A 11.121 11.121 0 0 0 7.081 77.714 Q 6.547 77.463 6.41 77.487 A 0.093 0.093 0 0 0 6.396 77.49 Q 6.267 77.534 6.099 77.462 A 0.802 0.802 0 0 1 6.055 77.441 A 8.776 8.776 0 0 1 5.408 77.337 Q 5.078 77.271 4.792 77.182 A 5.106 5.106 0 0 1 4.688 77.148 Q 4.138 76.965 3.417 76.954 A 6.106 6.106 0 0 0 3.32 76.953 Q 2.942 76.877 2.505 76.948 A 3.145 3.145 0 0 0 2.246 77.002 A 2.107 2.107 0 0 1 1.924 77.057 Q 1.842 77.065 1.762 77.065 A 1.574 1.574 0 0 1 1.172 76.953 A 0.347 0.347 0 0 1 1.125 76.891 Q 1.06 76.786 0.977 76.558 A 5.698 5.698 0 0 1 0.928 76.416 A 32.928 32.928 0 0 0 0.769 75.952 A 45.093 45.093 0 0 0 0.586 75.439 A 11.093 11.093 0 0 0 0.415 74.998 Q 0.305 74.731 0.195 74.512 A 6.903 6.903 0 0 1 0.129 74.376 Q 0.002 74.108 0 74.026 A 0.104 0.104 0 0 1 0 74.023 A 6.998 6.998 0 0 1 0.269 73.568 Q 0.7 72.903 1.074 72.754 L 2.051 72.363 A 7.997 7.997 0 0 0 2.26 72.695 Q 2.692 73.34 2.93 73.34 Q 3.203 73.34 3.137 73.594 A 0.599 0.599 0 0 1 3.125 73.633 A 1.198 1.198 0 0 0 3.668 73.763 Q 3.809 73.763 3.955 73.73 A 1.508 1.508 0 0 1 4.074 73.709 Q 4.422 73.66 4.59 73.828 A 1.881 1.881 0 0 0 5.029 73.986 A 1.595 1.595 0 0 0 5.371 74.023 L 6.25 74.023 Q 7.031 72.754 7.129 72.363 A 7.288 7.288 0 0 1 7.042 71.254 A 6.515 6.515 0 0 1 7.178 69.922 A 8.431 8.431 0 0 0 7.352 68.198 A 9.352 9.352 0 0 0 7.324 67.48 Q 7.13 66.509 7.226 66.456 A 0.025 0.025 0 0 1 7.227 66.455 A 0.148 0.148 0 0 0 7.293 66.385 Q 7.324 66.322 7.324 66.211 A 4.457 4.457 0 0 0 7.129 64.893 A 4.487 4.487 0 0 1 6.966 64.156 A 3.725 3.725 0 0 1 6.934 63.672 A 1.989 1.989 0 0 1 6.957 63.359 Q 6.984 63.191 7.042 63.054 A 0.986 0.986 0 0 1 7.129 62.891 A 1.165 1.165 0 0 0 7.318 62.344 A 1.465 1.465 0 0 0 7.324 62.207 A 6.742 6.742 0 0 0 7.31 61.752 Q 7.281 61.329 7.195 61.041 A 1.834 1.834 0 0 0 7.178 60.986 A 0.667 0.667 0 0 1 7.147 60.828 Q 7.117 60.462 7.412 59.872 A 5.222 5.222 0 0 1 7.52 59.668 A 5.076 5.076 0 0 1 7.463 59.417 Q 7.362 58.901 7.447 58.652 A 0.464 0.464 0 0 1 7.471 58.594 A 4.499 4.499 0 0 0 7.702 58.044 A 4.136 4.136 0 0 0 7.715 58.008 A 3.061 3.061 0 0 0 7.7 57.698 A 2.397 2.397 0 0 0 7.666 57.471 A 0.856 0.856 0 0 1 7.65 57.303 Q 7.65 57.202 7.671 57.095 A 1.365 1.365 0 0 1 7.715 56.934 Q 7.813 56.348 8.008 55.811 A 3.261 3.261 0 0 0 8.203 54.688 A 1.764 1.764 0 0 0 8.171 54.343 A 1.338 1.338 0 0 0 8.057 54.004 A 1.364 1.364 0 0 1 7.932 53.605 A 1.816 1.816 0 0 1 7.91 53.32 Q 7.715 52.637 7.813 52.002 Q 7.91 51.367 7.91 50.684 A 0.488 0.488 0 0 1 7.89 50.603 Q 7.856 50.377 8.077 50.215 A 0.785 0.785 0 0 1 8.105 50.195 A 0.631 0.631 0 0 0 8.39 49.738 A 0.92 0.92 0 0 0 8.398 49.609 Z M 34.766 72.363 L 35.547 72.559 A 28.063 28.063 0 0 0 35.753 72.512 Q 36.426 72.357 36.426 72.314 A 0.044 0.044 0 0 1 36.437 72.289 Q 36.47 72.244 36.611 72.173 A 2.117 2.117 0 0 1 36.621 72.168 A 1.165 1.165 0 0 1 37.167 71.979 A 1.465 1.465 0 0 1 37.305 71.973 A 1.663 1.663 0 0 0 37.903 71.858 A 2.042 2.042 0 0 0 38.086 71.777 Q 39.234 71.449 40.588 70.708 A 19.421 19.421 0 0 0 41.113 70.41 A 16.935 16.935 0 0 1 41.384 70.244 Q 41.879 69.948 42.019 69.924 A 0.132 0.132 0 0 1 42.041 69.922 A 0.544 0.544 0 0 0 42.163 69.907 Q 42.264 69.884 42.383 69.824 A 22.931 22.931 0 0 1 42.938 69.51 Q 43.726 69.08 44.238 68.896 A 12.012 12.012 0 0 0 45.132 68.538 A 10.301 10.301 0 0 0 45.508 68.359 Q 45.801 68.164 46.045 68.018 A 11.487 11.487 0 0 0 46.301 67.859 A 15.787 15.787 0 0 0 46.582 67.676 Q 46.875 67.48 47.217 67.383 A 2.253 2.253 0 0 0 47.852 67.09 A 2.29 2.29 0 0 0 48.176 66.83 A 1.923 1.923 0 0 0 48.34 66.65 A 2.023 2.023 0 0 1 48.663 66.331 A 2.447 2.447 0 0 1 48.828 66.211 A 2.633 2.633 0 0 1 49.033 66.028 Q 49.161 65.924 49.316 65.82 L 49.902 65.43 L 50.83 64.502 A 2.127 2.127 0 0 1 51.374 64.114 Q 51.616 63.99 51.912 63.905 A 3.875 3.875 0 0 1 52.051 63.867 A 3.029 3.029 0 0 1 52.237 63.388 Q 52.517 62.824 52.979 62.646 Q 53.526 62.436 54.111 61.97 A 6.71 6.71 0 0 0 54.297 61.816 L 54.59 61.426 A 6.841 6.841 0 0 1 54.994 60.938 A 8.239 8.239 0 0 1 55.273 60.645 A 7.863 7.863 0 0 0 55.724 60.156 A 6.534 6.534 0 0 0 55.957 59.863 L 56.25 59.473 A 13.928 13.928 0 0 0 56.528 59.188 Q 57.083 58.6 57.083 58.421 A 0.092 0.092 0 0 0 57.08 58.398 Q 57.031 58.203 57.129 58.008 Q 57.823 57.313 57.823 56.928 A 0.377 0.377 0 0 0 57.813 56.836 Q 57.78 56.706 57.78 56.586 A 0.765 0.765 0 0 1 57.91 56.152 A 2.859 2.859 0 0 0 58.626 55.307 Q 58.938 54.733 58.938 54.024 A 3.305 3.305 0 0 0 58.936 53.906 A 6.897 6.897 0 0 1 58.931 53.66 Q 58.931 52.977 59.071 52.37 A 4.753 4.753 0 0 1 59.375 51.465 Q 59.766 50.977 59.619 50.781 A 0.503 0.503 0 0 1 59.566 50.693 Q 59.503 50.56 59.555 50.426 A 0.409 0.409 0 0 1 59.57 50.391 A 15.323 15.323 0 0 1 60.115 47.106 A 17.246 17.246 0 0 1 60.254 46.631 A 13.997 13.997 0 0 0 60.693 44.788 A 10.611 10.611 0 0 0 60.84 43.066 A 1.024 1.024 0 0 0 60.693 42.529 A 0.594 0.594 0 0 1 60.605 42.219 Q 60.605 42.144 60.624 42.065 A 0.821 0.821 0 0 1 60.645 41.992 A 0.454 0.454 0 0 1 60.648 41.944 Q 60.663 41.812 60.742 41.455 A 18.161 18.161 0 0 1 60.852 40.991 A 24.961 24.961 0 0 1 60.986 40.479 A 24.961 24.961 0 0 0 61.121 39.966 A 18.161 18.161 0 0 0 61.23 39.502 L 61.328 39.063 Q 60.889 38.887 60.963 38.553 A 0.573 0.573 0 0 1 60.986 38.477 A 3.779 3.779 0 0 1 61.156 38.089 A 2.927 2.927 0 0 1 61.328 37.793 A 0.692 0.692 0 0 1 61.144 37.618 Q 61.035 37.464 61.035 37.256 Q 61.035 36.914 60.938 36.523 A 16.08 16.08 0 0 0 60.931 36.066 Q 60.913 35.425 60.84 35.059 L 60.498 34.375 A 2.109 2.109 0 0 1 60.397 34.134 Q 60.316 33.903 60.254 33.594 A 6.195 6.195 0 0 1 60.193 33.223 Q 60.139 32.837 60.107 32.324 Q 60.073 31.771 59.965 31.365 A 2.711 2.711 0 0 0 59.863 31.055 A 2.279 2.279 0 0 1 59.744 30.66 Q 59.688 30.385 59.717 30.127 A 1.573 1.573 0 0 0 59.727 29.953 A 1.449 1.449 0 0 0 59.57 29.297 L 58.984 27.979 L 58.594 27.1 A 7.993 7.993 0 0 1 58.461 26.784 Q 58.399 26.626 58.352 26.484 A 4.238 4.238 0 0 1 58.301 26.318 Q 58.209 25.996 58.377 25.978 A 0.196 0.196 0 0 1 58.398 25.977 A 13.877 13.877 0 0 1 58.237 25.699 Q 57.973 25.235 57.573 24.472 A 91.293 91.293 0 0 1 57.568 24.463 Q 57.033 23.441 56.837 23.243 A 0.432 0.432 0 0 0 56.836 23.242 A 2.045 2.045 0 0 0 56.523 22.169 Q 56.353 21.888 56.09 21.618 A 3.87 3.87 0 0 0 56.055 21.582 Q 56.055 21.103 55.866 20.764 A 1.283 1.283 0 0 0 55.859 20.752 A 6.065 6.065 0 0 0 55.64 20.398 Q 55.518 20.215 55.371 20.02 L 55.371 18.848 A 2.647 2.647 0 0 1 54.541 17.627 A 1.838 1.838 0 0 0 53.79 16.662 A 2.526 2.526 0 0 0 53.516 16.504 A 1.484 1.484 0 0 0 53.384 16.083 A 1.169 1.169 0 0 0 52.979 15.625 Q 52.539 15.332 52.637 14.551 A 19.603 19.603 0 0 0 52.114 13.997 Q 51.599 13.472 51.201 13.166 A 4.284 4.284 0 0 0 51.025 13.037 Q 50.539 12.701 50.139 12.45 A 14.571 14.571 0 0 0 49.902 12.305 Q 49.812 12.125 49.598 11.738 A 49.609 49.609 0 0 0 49.561 11.67 A 5.42 5.42 0 0 0 49.427 11.442 Q 49.292 11.225 49.174 11.092 A 1.281 1.281 0 0 0 49.121 11.035 A 3.618 3.618 0 0 1 48.414 10.754 A 2.987 2.987 0 0 1 47.949 10.449 A 17.586 17.586 0 0 1 47.47 10.051 Q 47.222 9.837 46.952 9.592 A 29.421 29.421 0 0 1 46.875 9.521 A 184.296 184.296 0 0 0 46.313 9.009 A 138.515 138.515 0 0 0 45.801 8.545 Q 45.355 8.144 45.316 8.027 A 0.063 0.063 0 0 1 45.312 8.008 A 0.444 0.444 0 0 1 45.206 7.991 Q 44.978 7.933 44.482 7.666 Q 43.848 7.324 43.115 6.934 Q 42.383 6.543 41.748 6.201 A 6.636 6.636 0 0 1 41.529 6.078 Q 41.095 5.823 41.016 5.664 Q 40.527 5.859 40.137 5.713 A 5.067 5.067 0 0 1 39.447 5.395 A 4.671 4.671 0 0 1 39.404 5.371 A 5.012 5.012 0 0 0 38.721 5.048 A 5.5 5.5 0 0 0 38.672 5.029 A 0.965 0.965 0 0 0 38.4 4.969 Q 38.145 4.951 37.891 5.078 A 2.086 2.086 0 0 0 36.387 4.44 Q 36.31 4.439 36.23 4.443 Q 35.596 4.475 35.043 4.404 A 4.992 4.992 0 0 1 34.473 4.297 Q 33.037 3.898 32.155 3.76 A 7.37 7.37 0 0 0 31.787 3.711 A 18.732 18.732 0 0 0 30.896 3.638 A 14.356 14.356 0 0 0 30.078 3.613 A 4.382 4.382 0 0 0 29.345 3.673 A 3.905 3.905 0 0 0 29.15 3.711 A 4.169 4.169 0 0 1 28.404 3.805 A 4.75 4.75 0 0 1 28.223 3.809 Q 27.676 3.34 27.254 3.34 A 0.703 0.703 0 0 0 27.051 3.369 Q 26.563 3.516 26.074 3.613 A 1.431 1.431 0 0 0 25.513 3.332 Q 25.138 3.234 24.639 3.278 A 4.309 4.309 0 0 0 24.316 3.32 A 149.503 149.503 0 0 1 23.761 3.412 Q 23.22 3.5 22.808 3.562 A 43.959 43.959 0 0 1 22.461 3.613 A 2.702 2.702 0 0 0 22.291 4.375 Q 22.263 4.775 22.363 5.176 A 6.421 6.421 0 0 1 22.559 6.738 A 1.843 1.843 0 0 1 22.462 7.322 A 2.555 2.555 0 0 1 22.461 7.324 Q 22.363 7.617 22.461 8.008 L 22.461 12.891 Q 22.751 13.567 22.563 13.813 A 0.299 0.299 0 0 1 22.559 13.818 Q 22.367 14.057 22.457 14.53 A 2.033 2.033 0 0 0 22.461 14.551 A 7.051 7.051 0 0 0 22.803 16.699 A 7.051 7.051 0 0 1 23.145 18.848 Q 23.047 20.41 23.047 21.875 A 16.04 16.04 0 0 0 23.24 24.32 A 18.238 18.238 0 0 0 23.34 24.902 A 2.136 2.136 0 0 0 23.181 25.042 Q 22.933 25.284 22.933 25.486 A 0.315 0.315 0 0 0 22.949 25.586 A 4.039 4.039 0 0 1 23.01 25.788 Q 23.075 26.024 23.14 26.346 A 12.819 12.819 0 0 1 23.145 26.367 A 13.556 13.556 0 0 1 23.285 27.541 Q 23.333 28.159 23.339 28.85 A 22.931 22.931 0 0 1 23.34 29.053 A 9.821 9.821 0 0 1 23.275 30.21 Q 23.205 30.803 23.057 31.309 A 5.344 5.344 0 0 1 22.949 31.641 Q 23.34 33.105 23.34 34.668 A 25.171 25.171 0 0 1 23.145 37.793 A 11.345 11.345 0 0 0 23.035 39.209 Q 23.022 39.941 23.096 40.723 A 26.94 26.94 0 0 0 23.336 42.599 A 22.652 22.652 0 0 0 23.535 43.652 A 0.953 0.953 0 0 0 23.357 43.744 Q 23.087 43.926 23.136 44.24 A 0.731 0.731 0 0 0 23.145 44.287 Q 23.193 44.507 23.193 44.714 A 1.655 1.655 0 0 1 23.145 45.117 Q 23.047 45.508 22.852 45.898 Q 22.656 46.289 22.559 46.68 A 12.413 12.413 0 0 0 22.463 47.963 A 11.16 11.16 0 0 0 22.461 48.193 A 5.129 5.129 0 0 1 22.266 49.609 Q 22.949 50.684 22.51 51.904 Q 22.07 53.125 21.875 54.199 A 14.38 14.38 0 0 0 21.765 55.984 Q 21.765 57.306 21.999 58.686 A 18.031 18.031 0 0 0 22.07 59.082 Q 21.582 59.57 21.729 60.01 A 2.913 2.913 0 0 1 21.875 60.934 A 3.636 3.636 0 0 1 21.875 60.938 A 20.377 20.377 0 0 0 21.765 61.529 Q 21.592 62.549 21.631 63.086 A 19.15 19.15 0 0 1 21.673 63.979 A 23.286 23.286 0 0 1 21.68 64.551 A 9.127 9.127 0 0 1 21.67 64.95 Q 21.65 65.419 21.584 66.044 A 27.59 27.59 0 0 1 21.582 66.064 L 21.387 67.92 A 8.742 8.742 0 0 0 21.338 68.835 A 8.064 8.064 0 0 0 21.387 69.727 A 3.802 3.802 0 0 0 21.488 70.285 Q 21.565 70.573 21.686 70.803 A 1.818 1.818 0 0 0 21.875 71.094 A 0.843 0.843 0 0 0 21.736 71.163 Q 21.426 71.36 21.631 71.729 A 5.42 5.42 0 0 0 21.764 71.956 Q 21.899 72.173 22.017 72.307 A 1.281 1.281 0 0 0 22.07 72.363 A 5.142 5.142 0 0 0 22.052 72.599 Q 22.009 73.395 22.266 73.779 L 22.754 74.512 Q 23.633 74.414 24.512 74.414 A 8.081 8.081 0 0 0 26.27 74.219 A 2.944 2.944 0 0 0 26.555 74.106 Q 26.7 74.04 26.856 73.953 A 4.994 4.994 0 0 0 26.904 73.926 Q 27.216 73.748 27.487 73.651 A 2.553 2.553 0 0 1 27.539 73.633 A 3.021 3.021 0 0 0 28.412 73.758 Q 28.781 73.758 29.174 73.675 A 4.679 4.679 0 0 0 29.688 73.535 A 11.473 11.473 0 0 1 30.308 73.346 Q 31.052 73.145 31.543 73.145 Q 32.422 73.242 32.715 73.047 A 2.675 2.675 0 0 1 33.063 72.849 A 2.2 2.2 0 0 1 33.301 72.754 A 15.074 15.074 0 0 0 33.67 72.719 Q 34.334 72.647 34.482 72.553 A 0.09 0.09 0 0 0 34.521 72.51 Q 34.567 72.372 34.743 72.364 A 0.487 0.487 0 0 1 34.766 72.363 Z M 14.941 3.613 Q 14.648 4.883 14.453 6.201 A 18.302 18.302 0 0 0 14.258 8.887 A 15.486 15.486 0 0 1 14.311 9.509 Q 14.386 10.674 14.233 11.427 A 3.337 3.337 0 0 1 14.16 11.719 Q 14.035 12.137 14.035 12.538 A 2.526 2.526 0 0 0 14.258 13.574 A 2.402 2.402 0 0 0 13.762 14.028 Q 13.311 14.586 13.379 15.332 A 17.758 17.758 0 0 0 13.501 16.357 A 13.539 13.539 0 0 0 13.672 17.285 A 92.15 92.15 0 0 1 13.623 18.103 Q 13.55 19.238 13.477 19.824 A 6.492 6.492 0 0 0 13.428 20.63 Q 13.428 20.993 13.465 21.375 A 8.426 8.426 0 0 0 13.477 21.484 A 6.436 6.436 0 0 0 13.594 21.976 A 4.932 4.932 0 0 0 13.721 22.363 A 2.277 2.277 0 0 1 13.847 22.89 A 2.919 2.919 0 0 1 13.867 23.242 A 7.077 7.077 0 0 1 13.791 24.257 A 8.785 8.785 0 0 1 13.672 24.902 A 70.603 70.603 0 0 1 13.477 25.757 A 59.729 59.729 0 0 1 13.281 26.563 Q 13.184 27.246 13.184 27.881 L 13.184 29.297 Q 13.184 29.688 13.281 30.029 A 1.282 1.282 0 0 1 13.33 30.383 Q 13.33 30.521 13.303 30.665 A 1.748 1.748 0 0 1 13.281 30.762 A 1.764 1.764 0 0 1 13.249 31.106 A 1.338 1.338 0 0 1 13.135 31.445 A 1.364 1.364 0 0 0 13.01 31.844 A 1.816 1.816 0 0 0 12.988 32.129 Q 12.891 33.008 13.037 33.74 A 2.051 2.051 0 0 1 13.077 34.143 Q 13.077 34.686 12.793 35.254 L 13.379 36.426 A 1.205 1.205 0 0 1 13.482 36.716 Q 13.549 37.035 13.414 37.354 A 1.487 1.487 0 0 1 13.281 37.598 Q 13.281 38.086 13.379 38.379 A 0.648 0.648 0 0 1 13.411 38.585 Q 13.411 38.765 13.322 38.975 A 1.604 1.604 0 0 1 13.281 39.063 A 15.827 15.827 0 0 0 13.164 39.897 A 13.684 13.684 0 0 0 13.135 40.186 A 14.671 14.671 0 0 1 13.035 41.01 A 16.948 16.948 0 0 1 12.988 41.309 A 4.449 4.449 0 0 1 12.762 41.858 A 4.881 4.881 0 0 1 12.744 41.895 A 1.364 1.364 0 0 0 12.619 42.293 A 1.816 1.816 0 0 0 12.598 42.578 A 1.843 1.843 0 0 0 12.695 43.162 A 2.555 2.555 0 0 0 12.695 43.164 Q 12.787 43.439 12.793 43.799 A 3.052 3.052 0 0 1 12.793 43.848 A 15.443 15.443 0 0 1 12.766 44.754 A 17.49 17.49 0 0 1 12.744 45.068 A 19.78 19.78 0 0 1 12.643 46.048 A 22.334 22.334 0 0 1 12.598 46.387 A 11.014 11.014 0 0 1 12.5 46.667 A 8.655 8.655 0 0 1 12.402 46.924 A 8.655 8.655 0 0 0 12.305 47.18 A 11.014 11.014 0 0 0 12.207 47.461 A 3.061 3.061 0 0 0 12.222 47.771 A 2.397 2.397 0 0 0 12.256 47.998 A 0.856 0.856 0 0 1 12.272 48.166 Q 12.272 48.267 12.25 48.374 A 1.365 1.365 0 0 1 12.207 48.535 A 4.949 4.949 0 0 1 12.02 49.127 A 4.407 4.407 0 0 1 11.963 49.268 A 4.723 4.723 0 0 0 11.757 49.855 A 5.344 5.344 0 0 0 11.719 50 A 9.763 9.763 0 0 0 11.499 52.051 A 9.592 9.592 0 0 0 11.523 52.734 A 19.183 19.183 0 0 1 11.572 54.102 A 19.183 19.183 0 0 1 11.523 55.469 A 1.839 1.839 0 0 1 11.377 56.201 A 0.587 0.587 0 0 0 11.328 56.434 Q 11.328 56.635 11.466 56.85 A 1.34 1.34 0 0 0 11.523 56.934 Q 11.133 57.715 10.938 58.203 Q 11.295 59.276 10.752 60.676 A 6.63 6.63 0 0 1 10.645 60.938 A 22.325 22.325 0 0 0 10.742 61.401 A 16.244 16.244 0 0 0 10.84 61.816 A 3.17 3.17 0 0 1 10.916 62.259 A 4.244 4.244 0 0 1 10.938 62.695 A 1.247 1.247 0 0 1 10.852 63.144 A 1.531 1.531 0 0 1 10.791 63.281 A 1.411 1.411 0 0 0 10.673 63.611 A 1.196 1.196 0 0 0 10.645 63.867 Q 10.547 64.16 10.644 64.452 A 0.958 0.958 0 0 0 10.645 64.453 Q 10.736 64.728 10.742 65.088 A 3.052 3.052 0 0 1 10.742 65.137 Q 10.742 66.211 10.596 67.188 A 13.482 13.482 0 0 0 10.455 68.822 A 15.344 15.344 0 0 0 10.449 69.238 A 3.206 3.206 0 0 0 10.468 69.572 Q 10.51 69.971 10.645 70.508 A 7.4 7.4 0 0 1 10.581 71.491 A 6.278 6.278 0 0 1 10.498 71.973 Q 10.352 72.656 10.742 73.242 A 1.313 1.313 0 0 1 10.701 73.556 Q 10.665 73.704 10.596 73.868 A 3.288 3.288 0 0 1 10.449 74.17 A 1.749 1.749 0 0 0 10.38 74.31 Q 10.196 74.734 10.449 74.902 A 7.237 7.237 0 0 0 10.757 74.988 Q 11.44 75.16 11.732 75.062 A 0.46 0.46 0 0 0 11.768 75.049 Q 12.085 74.913 12.36 74.903 A 1.194 1.194 0 0 1 12.402 74.902 A 1.53 1.53 0 0 1 12.747 74.94 A 1.31 1.31 0 0 1 12.939 75 A 1.375 1.375 0 0 0 13.333 75.092 A 1.655 1.655 0 0 0 13.477 75.098 Q 13.84 75.098 14.118 75.013 A 1.577 1.577 0 0 0 14.16 75 A 1.845 1.845 0 0 1 14.737 74.902 A 1.776 1.776 0 0 1 14.746 74.902 A 1.843 1.843 0 0 1 15.33 74.999 A 2.555 2.555 0 0 1 15.332 75 A 1.845 1.845 0 0 0 15.909 75.098 A 1.776 1.776 0 0 0 15.918 75.098 A 1.747 1.747 0 0 0 16.586 74.961 A 2.291 2.291 0 0 0 16.895 74.805 Q 17.361 74.525 17.828 74.691 A 1.194 1.194 0 0 1 17.871 74.707 A 5.097 5.097 0 0 1 17.832 74.074 A 5.624 5.624 0 0 1 17.92 73.096 A 9.466 9.466 0 0 0 18.061 71.779 A 8.485 8.485 0 0 0 18.066 71.484 A 36.713 36.713 0 0 0 17.892 69.928 A 32.135 32.135 0 0 0 17.822 69.434 A 13.149 13.149 0 0 1 17.676 67.48 Q 17.862 66.085 17.782 65.487 A 1.792 1.792 0 0 0 17.773 65.43 A 1.4 1.4 0 0 1 17.754 65.199 Q 17.754 64.813 17.981 64.473 A 1.661 1.661 0 0 1 18.066 64.355 Q 17.676 63.477 18.018 62.793 A 1.763 1.763 0 0 0 18.197 62.118 Q 18.215 61.846 18.163 61.542 A 3.431 3.431 0 0 0 18.066 61.133 A 3.087 3.087 0 0 0 18.351 60.757 Q 18.714 60.184 18.604 59.668 A 6.628 6.628 0 0 1 18.471 58.682 A 7.866 7.866 0 0 1 18.457 58.203 A 17.905 17.905 0 0 0 18.506 57.805 Q 18.613 56.837 18.538 56.39 A 1.159 1.159 0 0 0 18.506 56.25 A 2.03 2.03 0 0 1 18.418 55.664 A 1.987 1.987 0 0 1 18.457 55.273 A 8.462 8.462 0 0 1 18.604 53.711 A 8.462 8.462 0 0 0 18.75 52.148 A 4.744 4.744 0 0 0 18.815 51.367 A 4.702 4.702 0 0 0 18.799 50.977 A 14.105 14.105 0 0 1 18.75 49.805 Q 18.75 49.512 18.701 49.17 A 1.583 1.583 0 0 1 18.685 48.964 Q 18.682 48.738 18.75 48.535 A 4.679 4.679 0 0 0 19.067 47.594 Q 19.195 47.007 19.141 46.436 A 5.437 5.437 0 0 1 19.116 45.92 Q 19.116 45.239 19.284 44.537 A 6.686 6.686 0 0 1 19.336 44.336 Q 19.652 43.704 19.744 43.296 A 1.646 1.646 0 0 0 19.775 43.115 Q 19.809 42.813 19.866 42.442 A 25.908 25.908 0 0 1 19.922 42.09 Q 20.001 41.613 20.016 41.233 A 4.336 4.336 0 0 0 20.02 41.064 L 20.02 40.527 A 1.839 1.839 0 0 0 19.873 39.795 A 1.839 1.839 0 0 1 19.727 39.063 A 1.284 1.284 0 0 1 19.688 38.75 Q 19.688 38.534 19.762 38.318 A 1.501 1.501 0 0 1 19.775 38.281 Q 19.922 37.891 19.824 37.402 A 39.35 39.35 0 0 1 19.775 35.437 A 40.834 40.834 0 0 1 19.824 33.447 A 40.834 40.834 0 0 0 19.873 31.458 A 39.35 39.35 0 0 0 19.824 29.492 A 8.398 8.398 0 0 0 19.812 29.035 Q 19.8 28.815 19.776 28.619 A 5.555 5.555 0 0 0 19.775 28.613 A 6.293 6.293 0 0 1 19.727 27.832 Q 19.629 26.66 19.58 25.537 A 52.844 52.844 0 0 1 19.531 23.242 A 1.843 1.843 0 0 1 19.628 22.659 A 2.555 2.555 0 0 1 19.629 22.656 Q 19.72 22.382 19.726 22.021 A 3.052 3.052 0 0 0 19.727 21.973 Q 19.727 21.582 19.629 21.191 A 3.17 3.17 0 0 1 19.553 20.749 A 4.244 4.244 0 0 1 19.531 20.313 A 157.172 157.172 0 0 0 19.287 16.406 A 52.211 52.211 0 0 1 19.141 12.5 A 10.177 10.177 0 0 0 19.113 11.77 Q 19.086 11.395 19.032 10.977 A 18.402 18.402 0 0 0 18.994 10.693 Q 18.96 10.457 18.96 10.233 A 2.488 2.488 0 0 1 19.336 8.887 Q 18.848 7.91 18.945 6.885 A 2.396 2.396 0 0 0 18.956 6.658 Q 18.956 6.084 18.678 5.525 A 3.608 3.608 0 0 0 18.262 4.883 A 0.533 0.533 0 0 1 18.102 4.491 Q 18.102 4.341 18.168 4.161 A 1.596 1.596 0 0 1 18.213 4.053 Q 18.457 3.516 17.676 3.418 Q 16.992 3.809 16.357 3.711 A 8.074 8.074 0 0 0 15.686 3.638 A 10.838 10.838 0 0 0 14.941 3.613 Z" vector-effect="non-scaling-stroke"/></g></svg>